<svg height="512" viewBox="0 0 64 64" width="512" xmlns="http://www.w3.org/2000/svg"><path d="m49 59.725c2.377-1.934 11-9.454 11-16.725a11 11 0 0 0 -22 0c0 7.281 8.622 14.792 11 16.725zm-6-16.725a6 6 0 1 1 6 6 6.006 6.006 0 0 1 -6-6z"/><path d="m4 12h15v6h-15z"/><path d="m32 24a1 1 0 0 0 1-1v-19h-12v19a1 1 0 0 0 1 1z"/><path d="m49 30c.338 0 .669.025 1 .051v-10.051h-15v3a3 3 0 0 1 -3 3h-10a3 3 0 0 1 -3-3v-3h-15v29a1 1 0 0 0 1 1h32.95a15.193 15.193 0 0 1 -1.95-7 13.015 13.015 0 0 1 13-13z"/><path d="m19 4h-14a1 1 0 0 0 -1 1v5h15z"/><circle cx="49" cy="43" r="4"/><path d="m35 12h15v6h-15z"/><path d="m50 5a1 1 0 0 0 -1-1h-14v6h15z"/></svg>