<svg height="512" viewBox="0 0 64 64" width="512" xmlns="http://www.w3.org/2000/svg"><path d="m52 30.363v-25.363a3 3 0 0 0 -3-3h-44a3 3 0 0 0 -3 3v44a3 3 0 0 0 3 3h34.129a43.747 43.747 0 0 0 9.271 9.8 1 1 0 0 0 1.2 0c.506-.38 12.4-9.408 12.4-18.8a13.014 13.014 0 0 0 -10-12.637zm-17-18.363h15v6h-15zm15-7v5h-15v-6h14a1 1 0 0 1 1 1zm-17-1v19a1 1 0 0 1 -1 1h-10a1 1 0 0 1 -1-1v-19zm-14 14h-15v-6h15zm-14-14h14v6h-15v-5a1 1 0 0 1 1-1zm0 46a1 1 0 0 1 -1-1v-29h15v3a3 3 0 0 0 3 3h10a3 3 0 0 0 3-3v-3h15v10.051c-.331-.026-.662-.051-1-.051a13.015 13.015 0 0 0 -13 13 15.193 15.193 0 0 0 1.95 7zm44 9.725c-2.378-1.933-11-9.444-11-16.725a11 11 0 0 1 22 0c0 7.271-8.623 14.791-11 16.725z"/><path d="m49 37a6 6 0 1 0 6 6 6.006 6.006 0 0 0 -6-6zm0 10a4 4 0 1 1 4-4 4 4 0 0 1 -4 4z"/></svg>