<svg id="Capa_1" enable-background="new 0 0 512 512" height="512" viewBox="0 0 512 512" width="512" xmlns="http://www.w3.org/2000/svg"><g><g><path d="m99.317 455.379-13.055-13.056c-4.149-4.149-11.2-3.89-15.909.585l-46.691 44.366c-.043.041-.086.082-.128.124-5.437 5.304-1.462 14.578 6.134 14.578h39.792l29.254-30.669c4.491-4.708 4.758-11.772.603-15.928z" fill="#78eac4"/><path d="m255.376 374.341-83.634-83.633c-9.304-9.304-24.388-9.304-33.692 0l-66.378 62.555c-12.069 12.069-12.069 31.637 0 43.706 4.864 4.864 4.864 12.75 0 17.613l-8.221 8.221c-8.901 8.901-8.901 23.333 0 32.235l23.77 23.77c8.901 8.901 23.333 8.901 32.234 0l8.221-8.221c4.864-4.864 12.75-4.864 17.614 0 12.069 12.069 31.636 12.069 43.705 0l66.379-62.556c9.305-9.303 9.305-24.387.002-33.69z" fill="#b2e7f1"/><path d="m255.376 374.341-83.634-83.633c-9.304-9.304-24.388-9.304-33.692 0l-1.793 1.69c.801.607 1.583 1.258 2.318 1.993l69.074 69.074c7.684 7.685 8.41 19.416 1.621 26.204l-48.618 45.461c-8.806 8.806-21.718 6.649-28.503.886-4.566-3.878-17.662-4.637-25.189 2.161s-17.72 5.801-25.072-1.551l-16.13-16.13-2.308 2.307c-8.901 8.901-8.901 23.333 0 32.235l23.77 23.77c8.901 8.901 23.333 8.901 32.234 0l8.221-8.221c4.864-4.864 12.75-4.864 17.614 0 12.069 12.069 31.636 12.069 43.705 0l66.379-62.556c9.306-9.303 9.306-24.387.003-33.69z" fill="#a7adf1"/><path d="m189.187 430.807-73.449-73.449c-20.742-20.742-18.43-56.35 5.112-78.719l224.262-213.093c22.618-21.492 56.486-22.736 76.414-2.807l62.704 62.704c19.96 19.96 18.677 53.892-2.893 76.504l-213.516 223.838c-22.381 23.463-57.923 25.732-78.634 5.022z" fill="#78eac4"/><path d="m484.231 125.442-62.704-62.704c-19.929-19.929-53.796-18.685-76.414 2.807l-23.63 22.453c13.214-3.455 26.858-.715 36.117 8.544l46.07 46.069c14.664 14.665 12.993 40.324-3.768 57.851l-165.925 173.507c-17.392 18.186-44.287 20.637-59.503 5.42l-53.964-53.963c-9.364-9.364-12.026-23.149-8.461-36.419-14.914 21.918-14.077 50.585 3.689 68.35l73.449 73.449c20.711 20.711 56.252 18.441 78.633-5.022l213.518-223.838c21.57-22.611 22.853-56.544 2.893-76.504z" fill="#71afc4"/><path d="m240.375 335.232-29.062-29.062c-8.207-8.207-5.104-24.485 6.861-35.986l113.981-109.562c11.496-11.05 26.923-13.569 34.809-5.684l24.811 24.811c7.898 7.898 5.357 23.357-5.727 34.854l-109.73 113.813c-11.503 11.931-27.748 15.011-35.943 6.816z" fill="#bdf4e3"/></g><g><path d="m491.32 118.355-62.705-62.705c-11.631-11.631-27.495-17.697-44.655-17.058-16.792.617-33.041 7.608-45.753 19.687l-224.262 213.094c-13.835 13.146-21.956 31.103-22.368 49.358l-26.779 25.238c-.072.067-.144.137-.213.206-15.958 15.958-15.958 41.924 0 57.883.588.588.712 1.259.712 1.718s-.124 1.131-.712 1.719l-8.221 8.22c-9.189 9.189-11.778 22.517-7.769 34.04l-31.855 30.269-.208.199c-5.365 5.235-6.996 13.13-4.154 20.114 2.884 7.085 9.671 11.663 17.289 11.663h39.793c2.741 0 5.362-1.122 7.253-3.105l14.861-15.579c3.779 1.446 7.771 2.177 11.765 2.177 8.404 0 16.808-3.199 23.206-9.596l8.219-8.221c.949-.948 2.491-.946 3.439.001 15.919 15.918 41.801 15.956 57.769.112l24.334-22.932c1.34.084 2.685.142 4.044.142.255 0 .514-.001.77-.005 18.441-.217 36.649-8.341 49.954-22.289l213.518-223.838c12.121-12.707 19.148-28.968 19.783-45.787.65-17.193-5.407-33.077-17.055-44.725zm-426.151 373.597h-31.877l27.124-25.774 15.015 15.016zm116.953-28.66c-.072.068-.143.137-.213.207-8.14 8.143-21.388 8.141-29.53 0-8.764-8.763-23.024-8.763-31.79 0l-8.22 8.221c-4.977 4.978-13.079 4.98-18.058 0l-23.77-23.77c-4.979-4.979-4.979-13.079 0-18.058l8.221-8.221c4.246-4.245 6.584-9.89 6.584-15.895s-2.339-11.649-6.584-15.895c-8.11-8.109-8.141-21.285-.095-29.434l16.977-15.999c2.896 7.473 7.275 14.267 13.007 19.999l73.449 73.448c4.516 4.517 9.698 8.183 15.344 10.958zm291.963-268.265-213.517 223.838c-9.601 10.065-22.607 15.926-35.684 16.081-11.09.087-21.237-3.857-28.608-11.228 0 0 0 0-.001 0l-73.449-73.448c-7.382-7.382-11.369-17.558-11.228-28.652.167-13.099 6.056-26.116 16.156-35.712l224.263-213.094c9.997-9.498 22.425-14.319 34.309-14.319 10.473 0 20.526 3.746 28.113 11.333l62.705 62.705c15.96 15.961 14.588 43.997-3.059 62.496z" fill="#440a29"/><path d="m371.216 150.684c-10.279-10.278-29.267-7.819-43.23 5.601l-113.98 109.562c-8.232 7.913-13.203 18.363-13.298 27.956-.066 6.652 2.131 12.399 6.351 16.619l29.062 29.062v.001c4.159 4.158 9.801 6.351 16.331 6.351.089 0 .178 0 .267-.001 9.575-.087 20.015-5.039 27.927-13.245l109.73-113.814c13.469-13.97 15.951-32.981 5.65-43.28zm10.501 59.745-109.73 113.813c-5.718 5.931-12.962 9.507-19.377 9.566-2.342-.015-5.606-.452-7.983-2.829v.001l-29.062-29.062c-2.38-2.38-2.852-5.662-2.829-7.996.064-6.429 3.654-13.682 9.605-19.402l113.981-109.562c8.887-8.544 20.971-11.183 26.388-5.768l24.811 24.813c5.43 5.429 2.772 17.53-5.804 26.426z" fill="#440a29"/><g fill="#fff"><path d="m196.204 265.018c-2.591 0-5.18-.999-7.142-2.99-3.885-3.945-3.837-10.291.108-14.177l2.916-2.874c3.942-3.888 10.288-3.843 14.176.097 3.888 3.941 3.845 10.288-.097 14.176l-2.927 2.886c-1.952 1.923-4.494 2.882-7.034 2.882z"/><path d="m143.628 316.844c-2.547 0-5.095-.964-7.049-2.897-3.936-3.893-3.971-10.241-.078-14.177 8.926-9.025 19.438-19.564 29.729-29.303 4.021-3.807 10.366-3.631 14.171.39s3.631 10.366-.39 14.171c-10.079 9.539-20.445 19.932-29.256 28.841-1.96 1.983-4.543 2.975-7.127 2.975z"/></g></g><g><path d="m191.713 110.722c0 10.268-8.324 18.591-18.592 18.591s-18.592-8.324-18.592-18.591c0-10.268 8.324-18.592 18.592-18.592s18.592 8.323 18.592 18.592z" fill="#78eac4"/><circle cx="82.773" cy="89.393" fill="#78eac4" r="7.873"/><g fill="#bdf4e3"><path d="m224.565 1.882 6.316 17.759c.27.76.806 1.363 1.481 1.667l15.778 7.109c2.229 1.004 2.229 4.556 0 5.56l-15.778 7.109c-.676.304-1.211.907-1.481 1.667l-6.316 17.759c-.892 2.509-4.048 2.509-4.94 0l-6.316-17.759c-.27-.761-.806-1.363-1.481-1.667l-15.778-7.109c-2.229-1.004-2.229-4.556 0-5.56l15.778-7.109c.676-.304 1.211-.907 1.481-1.667l6.316-17.759c.892-2.509 4.047-2.509 4.94 0z"/><path d="m45.058 136.267 8.679 23.941c.372 1.025 1.107 1.837 2.035 2.248l21.681 9.583c3.063 1.354 3.063 6.142 0 7.496l-21.681 9.583c-.928.41-1.664 1.223-2.035 2.248l-8.679 23.941c-1.226 3.382-5.562 3.382-6.788 0l-8.678-23.941c-.372-1.025-1.107-1.837-2.035-2.248l-21.681-9.583c-3.063-1.354-3.063-6.142 0-7.496l21.681-9.583c.928-.41 1.664-1.223 2.035-2.248l8.678-23.941c1.226-3.383 5.561-3.383 6.788 0z"/></g></g></g></svg>