<?xml version="1.0"?>
<svg xmlns="http://www.w3.org/2000/svg" xmlns:xlink="http://www.w3.org/1999/xlink" xmlns:svgjs="http://svgjs.com/svgjs" version="1.1" width="512" height="512" x="0" y="0" viewBox="0 0 512 512" style="enable-background:new 0 0 512 512" xml:space="preserve" class=""><g>
<g xmlns="http://www.w3.org/2000/svg">
	<g>
		<g>
			<path d="M116,256c0-37.42,14.562-72.6,41.005-99.059c7.811-7.816,7.811-20.488,0-28.303c-7.81-7.817-20.473-7.817-28.284-0.001     C94.723,162.657,76,207.888,76,256s18.723,93.343,52.721,127.363c7.81,7.815,20.473,7.815,28.284-0.001     c7.811-7.815,7.811-20.487,0-28.303C130.562,328.6,116,293.42,116,256z" fill="#000000" data-original="#000000" style="" class=""/>
			<path d="M40,256c0-57.734,22.468-112.012,63.264-152.835c7.811-7.816,7.811-20.488,0-28.304c-7.811-7.815-20.474-7.815-28.284,0     C26.628,123.246,0,187.575,0,256s26.628,132.754,74.981,181.139c7.809,7.814,20.473,7.816,28.284,0     c7.811-7.816,7.811-20.488,0-28.304C62.468,368.012,40,313.734,40,256z" fill="#000000" data-original="#000000" style="" class=""/>
			<path d="M256,151.932c-57.346,0-104,46.685-104,104.068s46.654,104.068,104,104.068S360,313.383,360,256     S313.346,151.932,256,151.932z M256,320.042c-35.29,0-64-28.729-64-64.042s28.71-64.042,64-64.042c35.29,0,64,28.729,64,64.042     S291.29,320.042,256,320.042z" fill="#000000" data-original="#000000" style="" class=""/>
			<path d="M437.018,74.861c-7.81-7.816-20.473-7.815-28.284,0.001c-7.811,7.816-7.81,20.487,0.001,28.303     C449.532,143.988,472,198.266,472,256s-22.468,112.012-63.264,152.835c-7.811,7.816-7.812,20.487-0.001,28.303     c7.808,7.814,20.471,7.819,28.284,0.001C485.371,388.754,512,324.425,512,256S485.371,123.246,437.018,74.861z" fill="#000000" data-original="#000000" style="" class=""/>
			<path d="M383.278,128.637c-7.81-7.816-20.473-7.815-28.284,0.001c-7.811,7.816-7.81,20.487,0.001,28.303     C381.437,183.4,396,218.58,396,256c0,37.42-14.562,72.6-41.005,99.059c-7.811,7.816-7.812,20.487-0.001,28.303     c7.808,7.814,20.471,7.819,28.284,0.001C417.276,349.343,436,304.112,436,256S417.276,162.657,383.278,128.637z" fill="#000000" data-original="#000000" style="" class=""/>
		</g>
	</g>
</g>
<g xmlns="http://www.w3.org/2000/svg">
</g>
<g xmlns="http://www.w3.org/2000/svg">
</g>
<g xmlns="http://www.w3.org/2000/svg">
</g>
<g xmlns="http://www.w3.org/2000/svg">
</g>
<g xmlns="http://www.w3.org/2000/svg">
</g>
<g xmlns="http://www.w3.org/2000/svg">
</g>
<g xmlns="http://www.w3.org/2000/svg">
</g>
<g xmlns="http://www.w3.org/2000/svg">
</g>
<g xmlns="http://www.w3.org/2000/svg">
</g>
<g xmlns="http://www.w3.org/2000/svg">
</g>
<g xmlns="http://www.w3.org/2000/svg">
</g>
<g xmlns="http://www.w3.org/2000/svg">
</g>
<g xmlns="http://www.w3.org/2000/svg">
</g>
<g xmlns="http://www.w3.org/2000/svg">
</g>
<g xmlns="http://www.w3.org/2000/svg">
</g>
</g></svg>
